<svg width="39" height="37" viewBox="0 0 39 37" fill="none" xmlns="http://www.w3.org/2000/svg">
<path d="M34.1717 0.927734H4.42822C2.0307 0.927734 0.0810547 2.87673 0.0810547 5.27708V32.6131C0.0810547 35.0106 2.0307 36.9576 4.42822 36.9576H34.1716C36.5691 36.9576 38.5167 35.0106 38.5167 32.6131V5.27708C38.5168 2.87673 36.5692 0.927734 34.1717 0.927734ZM24.9356 7.39605C27.2541 7.39605 29.1344 9.27647 29.1344 11.5949C29.1344 13.9133 27.2539 15.7937 24.9356 15.7937C22.6164 15.7937 20.7367 13.9133 20.7367 11.5949C20.7367 9.27647 22.6164 7.39605 24.9356 7.39605ZM32.8084 32.9392H19.2985H6.3906C5.23095 32.9392 4.71449 32.1001 5.23726 31.065L12.4432 16.7924C12.9653 15.7574 13.9604 15.665 14.6651 16.5859L21.9109 26.055C22.6156 26.976 23.8473 27.0543 24.6625 26.2292L26.4351 24.4342C27.2497 23.6091 28.4499 23.7113 29.1147 24.6609L33.7048 31.2175C34.3683 32.1686 33.968 32.9392 32.8084 32.9392Z" fill="#7C7F86"/>
</svg>
